<?xml version="1.0" encoding="UTF-8"?>
<svg xmlns="http://www.w3.org/2000/svg" xmlns:xlink="http://www.w3.org/1999/xlink" width="2100" height="2100" viewBox="0 0 2100 2100">
<rect x="-210" y="-210" width="2520" height="2520" fill="rgb(99.609375%, 99.609375%, 99.609375%)" fill-opacity="1"/>
<path fill-rule="evenodd" fill="rgb(94.53125%, 87.109375%, 0%)" fill-opacity="1" d="M 1216.390625 443.589844 L 1511.039062 953.929688 L 1805.691406 1464.28125 C 1840.960938 1525.378906 1840.960938 1595.316406 1805.691406 1656.414062 C 1770.421875 1717.511719 1709.851562 1752.480469 1639.300781 1752.480469 L 460.699219 1752.480469 C 390.152344 1752.480469 329.585938 1717.511719 294.3125 1656.414062 C 259.035156 1595.316406 259.035156 1525.378906 294.3125 1464.28125 L 588.960938 953.929688 L 883.609375 443.589844 C 918.882812 382.488281 979.453125 347.519531 1050 347.519531 C 1120.550781 347.519531 1181.121094 382.488281 1216.390625 443.589844 "/>
<path fill-rule="nonzero" fill="rgb(0%, 0%, 0%)" fill-opacity="1" d="M 1100.050781 510.691406 C 1094.429688 500.960938 1087.46875 493.691406 1079.320312 488.980469 C 1071.238281 484.320312 1061.410156 481.941406 1050 481.941406 C 1038.628906 481.941406 1028.828125 484.300781 1020.761719 488.941406 L 1020.789062 488.980469 C 1012.539062 493.75 1005.53125 501.019531 999.945312 510.691406 L 410.648438 1531.390625 C 405.070312 1541.050781 402.277344 1550.769531 402.277344 1560.347656 C 402.277344 1569.902344 405.054688 1579.59375 410.601562 1589.230469 L 410.648438 1589.203125 C 416.328125 1599.042969 423.296875 1606.347656 431.386719 1611.015625 C 439.464844 1615.679688 449.289062 1618.058594 460.703125 1618.058594 L 1639.300781 1618.058594 C 1650.710938 1618.058594 1660.539062 1615.679688 1668.609375 1611.015625 C 1676.699219 1606.347656 1683.671875 1599.042969 1689.351562 1589.203125 L 1689.398438 1589.230469 C 1694.949219 1579.59375 1697.71875 1569.902344 1697.71875 1560.347656 C 1697.71875 1550.839844 1694.929688 1541.15625 1689.351562 1531.492188 L 1689.351562 1531.390625 Z M 1105.679688 443.101562 C 1122.03125 452.53125 1135.558594 466.339844 1145.941406 484.320312 L 1735.191406 1504.941406 L 1735.238281 1504.914062 C 1745.660156 1522.972656 1750.878906 1541.574219 1750.878906 1560.347656 C 1750.878906 1579.054688 1745.660156 1597.621094 1735.238281 1615.675781 L 1735.238281 1615.78125 C 1724.921875 1633.660156 1711.390625 1647.433594 1694.980469 1656.902344 C 1678.570312 1666.378906 1659.898438 1671.214844 1639.300781 1671.214844 L 460.703125 1671.214844 C 440.101562 1671.214844 421.429688 1666.378906 405.015625 1656.902344 C 388.613281 1647.433594 375.085938 1633.660156 364.761719 1615.78125 L 364.761719 1615.675781 C 354.339844 1597.621094 349.125 1579.054688 349.125 1560.347656 C 349.125 1541.644531 354.339844 1523.074219 364.761719 1505.019531 L 954.0625 484.320312 C 964.476562 466.28125 977.972656 452.46875 994.210938 443.101562 L 994.316406 443.101562 C 1010.730469 433.621094 1029.398438 428.789062 1050 428.789062 C 1070.601562 428.789062 1089.269531 433.621094 1105.679688 443.101562 "/>
<path fill-rule="evenodd" fill="rgb(0%, 0%, 0%)" fill-opacity="1" d="M 1049.980469 788.238281 C 999.84375 788.238281 973.210938 793.050781 973.210938 823.03125 C 973.210938 841.019531 976.335938 866.21875 984.164062 929.808594 L 1029.621094 1317.28125 C 1037.449219 1324.480469 1060.960938 1324.480469 1070.359375 1317.28125 L 1115.800781 929.808594 C 1123.648438 866.21875 1126.78125 841.019531 1126.78125 823.03125 C 1126.78125 793.050781 1100.140625 788.238281 1049.980469 788.238281 "/>
<path fill-rule="evenodd" fill="rgb(0%, 0%, 0%)" fill-opacity="1" d="M 1049.988281 1498.5 C 1090.78125 1498.5 1117.171875 1470.914062 1117.171875 1432.53125 C 1117.171875 1394.132812 1090.78125 1361.742188 1049.988281 1361.742188 C 1011.601562 1361.742188 982.8125 1391.738281 982.8125 1432.53125 C 982.8125 1473.308594 1015.199219 1498.5 1049.988281 1498.5 "/>
</svg>
